<svg xmlns="http://www.w3.org/2000/svg" xmlns:xlink="http://www.w3.org/1999/xlink" viewBox="0 0 1200 1173.33"><defs><style>.cls-1{fill:#d92727;}.cls-2{fill:#d3b02a;}.cls-3,.cls-4{stroke:#231f20;stroke-miterlimit:10;}.cls-3{fill:url(#linear-gradient);}.cls-4{fill:#231f20;}</style><linearGradient id="linear-gradient" x1="363.99" y1="632.51" x2="472.46" y2="632.51" gradientUnits="userSpaceOnUse"><stop offset="0" stop-color="#1682c5"/><stop offset="0.1" stop-color="#2489c8"/><stop offset="0.29" stop-color="#489dd2"/><stop offset="0.55" stop-color="#82bce0"/><stop offset="0.86" stop-color="#d2e6f4"/><stop offset="1" stop-color="#f8fbfe"/></linearGradient></defs><g id="Layer_3" data-name="Layer 3"><path class="cls-1" d="M675.72,930.75c2.73,0,17-19.39,6.07-19.39-301.24,17-491-5.59-522.22-84.41L9.76,727.07C6,722.68.81,713.22,0,721.7,0,930,256.67,979.66,675.72,930.75Z"/><path class="cls-1" d="M699.32,359.67c-3.81,1.26,8.53,23.68,14.22,23.37,187.21,7.93,343.26,36.71,376.57,110.8l108,43.46C1165.09,419.4,1023.33,334.09,699.32,359.67Z"/><path class="cls-1" d="M1090.11,493.84c36.48,77.52-58.2,259-166.26,297.83l-7.59,38.75c97-30.61,220.45-181.53,210.72-321.74"/><path class="cls-1" d="M1159.35,521.7q31.23,230.22-257.92,384.48l5.81-29.66c144.19-77,264.19-244.32,226.27-365.22"/><path class="cls-1" d="M1198.11,537.3q26.3,265.74-314,457.58l7-35.74c135.11-53,344.48-297,276.61-434.09"/><path class="cls-1" d="M159.57,827C110,720,364,511.3,648.44,392l7.77-28.09C365.51,502.67,132.05,645.27,123.6,803Z"/><path class="cls-1" d="M90.12,780.64C108.66,622.72,343.63,469,669.19,317l-7.88,28.48c-291.42,139.35-540.11,283-547.07,451.2Z"/><path class="cls-1" d="M60.18,760.69q50.55-253.64,622.1-490.91l-7.52,27.15C389.92,412.31,113.15,590.36,80.75,774.4Z"/><path class="cls-1" d="M30.21,740.7C90.38,471.82,398,354,693.62,228.8l-6.79,24.55C399.15,368.48,120,489.44,50.81,754.44Z"/><path class="cls-1" d="M0,721.7C28.19,520,278.25,342,706.27,183.12l-7.09,25.62C355.35,349.49,61.38,504.84,20.74,734.39Z"/></g><g id="Layer_4" data-name="Layer 4"><rect class="cls-2" x="371.8" y="708.77" width="91.89" height="153.47"/><rect class="cls-2" x="537.59" y="495.62" width="76.74" height="289.9"/><rect class="cls-2" x="505.38" y="596.04" width="151.58" height="72.95"/><path class="cls-2" d="M648.44,856.56v-71H537.59C537.59,841.88,579.28,856.56,648.44,856.56Z"/><path class="cls-2" d="M884.55,785.09c-9.87,44-52.56,77.16-103.72,77.16C722.36,862.25,675,819,675,765.62S722.36,669,780.83,669c48.71,0,89.74,30,102.08,70.92H816.59c-1.89-40.13-84.76-38.19-84.76,22.42s84.76,58.72,84.76,23.19Z"/></g><g id="Layer_5" data-name="Layer 5"><circle class="cls-3" cx="418.23" cy="632.51" r="54.24"/><path class="cls-4" d="M382.48,629.59c13.84,9.73,10.31,21.79,6.22,32.7-2.36,6.46,14.59,4,18,2.33,15.62-13.52,16.68-39.44-9.66-48.28C387.58,613.57,374.47,623.25,382.48,629.59Z"/><circle class="cls-4" cx="436.73" cy="630.38" r="5.07"/><circle class="cls-4" cx="436.73" cy="634.74" r="5.07"/><circle class="cls-4" cx="433.18" cy="629.08" r="5.07"/><circle class="cls-4" cx="434.19" cy="647.83" r="5.07"/><circle class="cls-4" cx="433.63" cy="648.52" r="5.07"/><circle class="cls-4" cx="446.88" cy="648.52" r="5.07"/><circle class="cls-4" cx="446.06" cy="644.09" r="5.07"/></g></svg>